# xmcd
#
# Track frame offsets: 
#        150
#        17841
#        33551
#        52826
#        69690
#        84908
#        100043
#        117706
#        135781
#        152904
#        169080
#        186786
#        203164
#        222896
#        237272
#
# Disc length: 3338 seconds
#
# Revision: 0
# Processed by: cddbd v1.5.2PL0 Copyright (c) Steve Scherf et al.
# Submitted via: ExactAudioCopyFreeDBPlugin 1.0
#
DISCID=c60d080f
DTITLE=Various Artist - Iskelmägaala 2012 CD2
DYEAR=2012
DGENRE=
TTITLE0=Arttu Wiskari - Tuntematon potilas
TTITLE1=Katri Helena - Vieras sisar
TTITLE2=Tuure Kilpeläinen - Ystävänpäivä
TTITLE3=Teleks - Kaunein kaikista
TTITLE4=Agents and Vesa Haaja - Onnen siteet
TTITLE5=Neljänsuora - Valtava maailma
TTITLE6=Anne Mattila - Minne mua viet
TTITLE7=Jani Jalkanen ja Hänen Orkesterinsa - Matka jatkuu
TTITLE8=Juha Metsäperä - Hengitä ihollani
TTITLE9=Riku Torkkeli - Onko ylpeämpää luovuttaa?
TTITLE10=Eppo Normaali - Hiljaa huomiseen
TTITLE11=Martti Saarinen - Kaipaus nousee siivilleen
TTITLE12=Yö - Tällaisina aikoina
TTITLE13=Popeda - Hääkellot soi
TTITLE14=Poju - Poika (saunoo)
EXTD=
EXTT0=
EXTT1=
EXTT2=
EXTT3=
EXTT4=
EXTT5=
EXTT6=
EXTT7=
EXTT8=
EXTT9=
EXTT10=
EXTT11=
EXTT12=
EXTT13=
EXTT14=
PLAYORDER=
